<svg width="24" height="19" viewBox="0 0 24 19" fill="none" xmlns="http://www.w3.org/2000/svg">
<g clip-path="url(#clip0_9366_3783)">
<path d="M14.1341 4.35047L13.2566 4.69758L13.2566 6.76106L9.95892 9.14269C9.4608 8.9058 8.90652 8.81228 8.35826 8.87267C7.81491 8.9339 7.30006 9.14788 6.87336 9.4898L6.87336 10.1938L9.61181 12.855L5.57167 16.8855L7.03727 16.8855L10.3542 13.5686L12.7552 15.9116L13.488 15.9116C13.8348 15.5035 14.0529 15.0018 14.1147 14.4697C14.1765 13.9377 14.0792 13.3993 13.8352 12.9225L16.2939 9.7212L18.4153 9.7212L18.772 8.87267L14.1341 4.35047ZM16.0625 8.71848L15.6479 8.92093L12.8805 12.5368L12.8227 13.0286C13.1003 13.559 13.179 14.1712 13.0445 14.7546L11.116 12.8261L8.1172 9.90447C8.71679 9.77855 9.34128 9.85659 9.89142 10.1262L10.4025 10.0684L14.1244 7.37818L14.3269 6.98281L14.3269 5.87392L17.2196 8.68952L16.0625 8.71848Z" fill="#75BEFF"/>
</g>
<defs>
<clipPath id="clip0_9366_3783">
<rect width="16" height="16" fill="white" transform="translate(11.9999 0.686279) rotate(45)"/>
</clipPath>
</defs>
</svg>
