<svg width="16" height="16" viewBox="0 0 16 16" fill="none" xmlns="http://www.w3.org/2000/svg">
<path fill-rule="evenodd" clip-rule="evenodd" d="M14.0001 1.5V10V11V13.5L13.5001 14H9.00009V13H13.0001V11H4.00009H3.74009H3.73561C3.63735 11.0003 3.54019 11.0207 3.45009 11.06C3.26905 11.1351 3.12519 11.279 3.05009 11.46C3.01814 11.5534 3.00126 11.6513 3.00009 11.75V12.25C3.00126 12.3487 3.01814 12.4466 3.05009 12.54C3.12519 12.721 3.26905 12.8649 3.45009 12.94C3.54156 12.9799 3.64031 13.0003 3.74009 13H4.00009V14H3.74009C3.51074 13.9975 3.28375 13.9534 3.07009 13.87C2.64465 13.6883 2.30724 13.3473 2.13009 12.92C2.04191 12.7078 1.99769 12.4798 2.00009 12.25V2.75C2.0042 2.53701 2.0483 2.3267 2.13009 2.13C2.21231 1.90913 2.33781 1.7069 2.49922 1.53518C2.66064 1.36346 2.85473 1.22571 3.07009 1.13C3.28375 1.04658 3.51074 1.00254 3.74009 1H13.5001L14.0001 1.5ZM3.73561 2H3.74009C3.7386 2 3.7371 2 3.73561 2ZM4.00009 2V10H13.0001V2H4.00009ZM6.00009 3H5.00009V4H6.00009V3ZM6.00009 5H5.00009V6H6.00009V5ZM5.00009 7H6.00009V8H5.00009V7Z" fill="#C5C5C5"/>
<path fill-rule="evenodd" clip-rule="evenodd" d="M5.28 15L6.5 13.49L7.72 15H8V12H5V15H5.28Z" fill="#0092DA"/>
</svg>
