<svg width="35" height="35" viewBox="0 0 35 35" fill="none" xmlns="http://www.w3.org/2000/svg">
<path fill-rule="evenodd" clip-rule="evenodd" d="M0 3C0 1.34315 1.34315 0 3 0H32C33.6569 0 35 1.34315 35 3V32C35 33.6569 33.6569 35 32 35H3C1.34315 35 0 33.6569 0 32V3ZM4 16C4 14.8954 4.89543 14 6 14H13C14.1046 14 15 14.8954 15 16V28C15 29.1046 14.1046 30 13 30H6C4.89543 30 4 29.1046 4 28V16ZM22 14C20.8954 14 20 14.8954 20 16V28C20 29.1046 20.8954 30 22 30H29C30.1046 30 31 29.1046 31 28V16C31 14.8954 30.1046 14 29 14H22Z" fill="#00A1E2"/>
</svg>
