<svg width="233" height="233" viewBox="0 0 233 233" fill="none" xmlns="http://www.w3.org/2000/svg">
<rect width="233" height="233" rx="39" fill="#00A1E2"/>
<rect x="54" y="162" width="51" height="71" rx="4" fill="white"/>
<rect x="129" y="162" width="51" height="71" rx="4" fill="white"/>
<path d="M32.5343 114.64C30.1449 114.64 28.1396 114.235 26.5183 113.424C24.9396 112.613 23.6383 111.589 22.6143 110.352V112.4C22.6143 112.869 22.4436 113.253 22.1023 113.552C21.8036 113.851 21.4409 114 21.0143 114H13.7823C13.3129 114 12.9289 113.851 12.6302 113.552C12.3316 113.253 12.1823 112.869 12.1823 112.4V70.16C12.1823 69.6907 12.3316 69.3067 12.6302 69.008C12.9289 68.7093 13.3129 68.56 13.7823 68.56H21.5903C22.0596 68.56 22.4436 68.7093 22.7423 69.008C23.0409 69.3067 23.1903 69.6907 23.1903 70.16V83.856C24.2143 82.7467 25.4943 81.8507 27.0303 81.168C28.6089 80.4427 30.4436 80.08 32.5343 80.08C34.6676 80.08 36.5449 80.4427 38.1663 81.168C39.8303 81.8507 41.2383 82.8533 42.3903 84.176C43.5423 85.4987 44.4383 87.0773 45.0783 88.912C45.7183 90.7467 46.0809 92.816 46.1663 95.12C46.2089 95.9307 46.2303 96.6773 46.2303 97.36C46.2303 98 46.2089 98.7467 46.1663 99.6C46.0809 101.989 45.6969 104.123 45.0143 106C44.3743 107.835 43.4783 109.413 42.3263 110.736C41.1743 112.016 39.7876 112.997 38.1663 113.68C36.5449 114.32 34.6676 114.64 32.5343 114.64ZM29.0783 106.064C30.5289 106.064 31.6596 105.765 32.4703 105.168C33.2809 104.571 33.8569 103.76 34.1983 102.736C34.5823 101.712 34.8169 100.581 34.9023 99.344C34.9876 98.0213 34.9876 96.6987 34.9023 95.376C34.8169 94.1387 34.5823 93.008 34.1983 91.984C33.8569 90.96 33.2809 90.1493 32.4703 89.552C31.6596 88.9547 30.5289 88.656 29.0783 88.656C27.7556 88.656 26.6676 88.9547 25.8143 89.552C24.9609 90.1067 24.3209 90.8533 23.8943 91.792C23.4676 92.688 23.2329 93.6693 23.1903 94.736C23.1476 95.5467 23.1263 96.336 23.1263 97.104C23.1263 97.872 23.1476 98.6827 23.1903 99.536C23.2329 100.688 23.4463 101.755 23.8303 102.736C24.2143 103.717 24.8329 104.528 25.6863 105.168C26.5396 105.765 27.6703 106.064 29.0783 106.064ZM67.9173 114.64C62.8826 114.64 58.8719 113.275 55.8853 110.544C52.8986 107.813 51.3413 103.76 51.2133 98.384C51.2133 98.0853 51.2133 97.7013 51.2133 97.232C51.2133 96.7627 51.2133 96.4 51.2133 96.144C51.3413 92.7733 52.0879 89.8933 53.4533 87.504C54.8613 85.072 56.7813 83.2373 59.2133 82C61.6879 80.72 64.5679 80.08 67.8533 80.08C71.6079 80.08 74.7013 80.8267 77.1333 82.32C79.6079 83.8133 81.4639 85.84 82.7013 88.4C83.9386 90.96 84.5573 93.8827 84.5573 97.168V98.704C84.5573 99.1733 84.3866 99.5573 84.0452 99.856C83.7466 100.155 83.3839 100.304 82.9573 100.304H62.4773C62.4773 100.347 62.4773 100.411 62.4773 100.496C62.4773 100.581 62.4773 100.667 62.4773 100.752C62.5199 101.989 62.7333 103.12 63.1173 104.144C63.5013 105.168 64.0986 105.979 64.9093 106.576C65.7199 107.173 66.7013 107.472 67.8533 107.472C68.7066 107.472 69.4106 107.344 69.9653 107.088C70.5626 106.789 71.0533 106.469 71.4373 106.128C71.8213 105.744 72.1199 105.424 72.3333 105.168C72.7173 104.741 73.0159 104.485 73.2293 104.4C73.4853 104.272 73.8693 104.208 74.3813 104.208H82.3173C82.7439 104.208 83.0853 104.336 83.3413 104.592C83.6399 104.805 83.7679 105.125 83.7253 105.552C83.6826 106.277 83.3199 107.152 82.6373 108.176C81.9546 109.2 80.9519 110.224 79.6293 111.248C78.3493 112.229 76.7279 113.04 74.7653 113.68C72.8026 114.32 70.5199 114.64 67.9173 114.64ZM62.4773 93.968H73.2933V93.84C73.2933 92.4747 73.0799 91.28 72.6533 90.256C72.2693 89.232 71.6506 88.4427 70.7973 87.888C69.9866 87.3333 69.0053 87.056 67.8533 87.056C66.7013 87.056 65.7199 87.3333 64.9093 87.888C64.1413 88.4427 63.5439 89.232 63.1173 90.256C62.6906 91.28 62.4773 92.4747 62.4773 93.84V93.968ZM100.541 114.64C98.2373 114.64 96.1679 114.213 94.3333 113.36C92.5413 112.464 91.1119 111.269 90.0453 109.776C88.9786 108.283 88.4453 106.597 88.4453 104.72C88.4453 101.691 89.6826 99.3013 92.1573 97.552C94.6319 95.76 97.9173 94.544 102.013 93.904L110.013 92.688V91.792C110.013 90.256 109.693 89.0827 109.053 88.272C108.413 87.4613 107.24 87.056 105.533 87.056C104.339 87.056 103.357 87.2907 102.589 87.76C101.864 88.2293 101.288 88.8693 100.861 89.68C100.477 90.2347 99.9439 90.512 99.2613 90.512H92.0933C91.6239 90.512 91.2613 90.384 91.0052 90.128C90.7493 89.8293 90.6426 89.488 90.6853 89.104C90.6853 88.336 90.9626 87.4613 91.5173 86.48C92.1146 85.456 93.0106 84.4533 94.2053 83.472C95.3999 82.4907 96.9359 81.68 98.8133 81.04C100.691 80.4 102.952 80.08 105.597 80.08C108.371 80.08 110.739 80.4 112.701 81.04C114.664 81.68 116.243 82.576 117.437 83.728C118.675 84.88 119.592 86.2453 120.189 87.824C120.787 89.36 121.085 91.0667 121.085 92.944V112.4C121.085 112.869 120.915 113.253 120.573 113.552C120.275 113.851 119.912 114 119.485 114H112.061C111.592 114 111.208 113.851 110.909 113.552C110.611 113.253 110.461 112.869 110.461 112.4V110.16C109.907 110.971 109.16 111.717 108.221 112.4C107.283 113.083 106.173 113.616 104.893 114C103.656 114.427 102.205 114.64 100.541 114.64ZM103.549 107.344C104.787 107.344 105.896 107.088 106.877 106.576C107.901 106.021 108.691 105.189 109.245 104.08C109.843 102.928 110.141 101.499 110.141 99.792V98.896L104.701 99.856C102.696 100.197 101.224 100.731 100.285 101.456C99.3893 102.139 98.9413 102.949 98.9413 103.888C98.9413 104.613 99.1546 105.232 99.5813 105.744C100.008 106.256 100.563 106.661 101.245 106.96C101.928 107.216 102.696 107.344 103.549 107.344ZM152.883 103.888C151.39 106.789 149.513 109.264 147.251 111.312C144.99 113.36 142.729 114.384 140.467 114.384C138.206 114.384 136.457 113.616 135.219 112.08C134.025 110.501 133.171 108.496 132.659 106.064C132.147 103.589 131.678 101.051 131.251 98.448C130.867 95.8453 130.185 93.3067 129.203 90.832C128.222 88.3573 126.878 86.5013 125.171 85.264C125.726 84.24 126.558 83.3867 127.667 82.704C128.777 81.9787 129.971 81.616 131.251 81.616C133.257 81.616 134.878 82.9173 136.115 85.52C137.353 88.08 138.142 90.9173 138.483 94.032C138.867 97.1467 139.273 100.176 139.699 103.12C140.169 106.021 140.702 107.685 141.299 108.112C142.75 108.027 144.009 107.109 145.075 105.36C146.185 103.568 146.995 101.413 147.507 98.896C148.446 94.288 148.915 90.6827 148.915 88.08C148.915 85.4773 148.787 83.472 148.531 82.064C150.025 81.7653 151.305 81.616 152.371 81.616C156.041 81.616 157.875 83.3653 157.875 86.864C157.875 89.0827 157.406 91.7493 156.467 94.864C155.571 97.936 154.377 100.944 152.883 103.888ZM177.667 114.64C172.633 114.64 168.622 113.275 165.635 110.544C162.649 107.813 161.091 103.76 160.963 98.384C160.963 98.0853 160.963 97.7013 160.963 97.232C160.963 96.7627 160.963 96.4 160.963 96.144C161.091 92.7733 161.838 89.8933 163.203 87.504C164.611 85.072 166.531 83.2373 168.963 82C171.438 80.72 174.318 80.08 177.603 80.08C181.358 80.08 184.451 80.8267 186.883 82.32C189.358 83.8133 191.214 85.84 192.451 88.4C193.689 90.96 194.307 93.8827 194.307 97.168V98.704C194.307 99.1733 194.137 99.5573 193.795 99.856C193.497 100.155 193.134 100.304 192.707 100.304H172.227C172.227 100.347 172.227 100.411 172.227 100.496C172.227 100.581 172.227 100.667 172.227 100.752C172.27 101.989 172.483 103.12 172.867 104.144C173.251 105.168 173.849 105.979 174.659 106.576C175.47 107.173 176.451 107.472 177.603 107.472C178.457 107.472 179.161 107.344 179.715 107.088C180.313 106.789 180.803 106.469 181.187 106.128C181.571 105.744 181.87 105.424 182.083 105.168C182.467 104.741 182.766 104.485 182.979 104.4C183.235 104.272 183.619 104.208 184.131 104.208H192.067C192.494 104.208 192.835 104.336 193.091 104.592C193.39 104.805 193.518 105.125 193.475 105.552C193.433 106.277 193.07 107.152 192.387 108.176C191.705 109.2 190.702 110.224 189.379 111.248C188.099 112.229 186.478 113.04 184.515 113.68C182.553 114.32 180.27 114.64 177.667 114.64ZM172.227 93.968H183.043V93.84C183.043 92.4747 182.83 91.28 182.403 90.256C182.019 89.232 181.401 88.4427 180.547 87.888C179.737 87.3333 178.755 87.056 177.603 87.056C176.451 87.056 175.47 87.3333 174.659 87.888C173.891 88.4427 173.294 89.232 172.867 90.256C172.441 91.28 172.227 92.4747 172.227 93.84V93.968ZM201.907 114C201.438 114 201.054 113.851 200.755 113.552C200.457 113.253 200.307 112.869 200.307 112.4V82.32C200.307 81.8933 200.457 81.5307 200.755 81.232C201.054 80.8907 201.438 80.72 201.907 80.72H209.267C209.737 80.72 210.121 80.8907 210.419 81.232C210.718 81.5307 210.867 81.8933 210.867 82.32V84.88C212.019 83.5573 213.385 82.5333 214.963 81.808C216.585 81.0827 218.398 80.72 220.403 80.72H223.219C223.646 80.72 224.009 80.8693 224.307 81.168C224.649 81.4667 224.819 81.8507 224.819 82.32V88.912C224.819 89.3387 224.649 89.7227 224.307 90.064C224.009 90.3627 223.646 90.512 223.219 90.512H217.011C215.262 90.512 213.897 91.0027 212.915 91.984C211.977 92.9227 211.507 94.2667 211.507 96.016V112.4C211.507 112.869 211.337 113.253 210.995 113.552C210.697 113.851 210.313 114 209.843 114H201.907Z" fill="white"/>
</svg>
